<svg xmlns="http://www.w3.org/2000/svg" viewBox="0 0 421.76 421.76"><defs><style>.cls-1{fill:#d3d3d3;}.cls-2{fill:#3b7590;}.cls-3{fill:#e2f4fd;}.cls-4{fill:#f3fafe;}.cls-5{fill:#ce5252;}.cls-6{fill:#fee87e;}.cls-7{fill:#a9c060;}.cls-8{fill:#5fc8f2;}.cls-9{fill:#7c7640;}.cls-10{fill:#7e3e3e;}.cls-11{fill:#a48241;}.cls-12{fill:#bc4e4d;}.cls-13{fill:#cdab98;}.cls-14{fill:#47a8d6;}.cls-15{fill:#806c4e;}.cls-16{fill:#fff;}</style></defs><g id="Layer_2" data-name="Layer 2"><g id="Layer_1-2" data-name="Layer 1"><rect class="cls-1" x="25.51" y="306.08" width="158.82" height="21.52" rx="10.76" transform="translate(-193.31 166.99) rotate(-45)"/><circle class="cls-2" cx="263.34" cy="158.42" r="158.42"/><circle class="cls-3" cx="264.02" cy="157.74" r="143.95"/><rect class="cls-2" x="-13.02" y="333.85" width="158.82" height="43.05" rx="12" transform="translate(-231.84 151.03) rotate(-45)"/><path class="cls-4" d="M357.58,77.35l1-.5a4.93,4.93,0,0,0,2.09-7.18,101.85,101.85,0,0,0-74.23-44.92,5.19,5.19,0,0,0-5.84,4.73h0a5.16,5.16,0,0,0,4.56,5.31,93.08,93.08,0,0,1,65.58,40.75A5.39,5.39,0,0,0,357.58,77.35Z"/><path class="cls-5" d="M256.57,86.16c-.23-4.26-.7-8.68-3-12.27a23,23,0,0,0-8.78-8.16,19.71,19.71,0,0,0-15.44,0A23.67,23.67,0,0,0,218.26,76.3c-2.2,4.48-2.39,9.4-3.22,14.3a7.26,7.26,0,0,1-.92,2.9.61.61,0,0,1-.23.14,2.08,2.08,0,0,1-1.85,0,1.64,1.64,0,0,1-.33-.27A6.71,6.71,0,0,1,211,90.6c-.81-4.9-1-9.82-3.15-14.3a23.37,23.37,0,0,0-10.87-10.56,19,19,0,0,0-15.13,0,22.69,22.69,0,0,0-8.61,8.16c-2.28,3.59-2.74,8-3,12.27-.31,6-.26,12.11-.21,18.17q.12,14.17.23,28.35c0,5,.22,10.47,3.31,14.43a20.09,20.09,0,0,0,12.37,7l.07,0h0a5.11,5.11,0,0,1-1.81,2.26,5.74,5.74,0,0,1-.5.36c-.44.28-.93.62-.94,1.1s.75.95,1.4,1.13a18.54,18.54,0,0,0,6.64.5,3.79,3.79,0,0,0,1.78-.54,1.12,1.12,0,0,0,.42-1.5,1.4,1.4,0,0,0-.6-.44,6.12,6.12,0,0,1-1.3-.58,1.37,1.37,0,0,1-.5-.92,4.8,4.8,0,0,1,0-1.14c3.49-.12,7.57-.78,10.34-2.24a16.56,16.56,0,0,0,8.1-9c1.7-4.15,1.36-10.88,2.35-15.26.21-.9.67-2,1.6-2h0c.94,0,1.41,1.1,1.62,2,1,4.38,1,11.11,2.7,15.26a14.65,14.65,0,0,0,7.71,8.45c3.45,1.79,9.45,2.1,13.35,2,5.57-.19,11.35-2.07,14.8-6.41,3.14-4,3.32-9.4,3.37-14.43q.1-14.18.23-28.35C256.84,98.27,256.89,92.21,256.57,86.16Z"/><path class="cls-6" d="M352.14,132c-16.55-32.56-26.47-53.51-34.5-62.71l-.1-.11c-2.83-3.22-5.43-5-8-5.24-10.33-1.08-20.28,21.54-43.37,68.23-6.45,13.06-.64,18.69,7.49,21h.06a41.7,41.7,0,0,0,9.19,1.34h.21c1.13.05,2.24.06,3.3.05h.14c2.72,0,5.12-.2,6.78-.37a37.28,37.28,0,0,0,3.93-.6l1.54-.32h.06l2.85-.58a42.92,42.92,0,0,1,6.28-.77h.06a45,45,0,0,1,4.79,0,43.91,43.91,0,0,1,6,.75l1.19.24h0c1.1.23,2.1.45,2.9.67a31,31,0,0,0,6.76,1h0a28.66,28.66,0,0,0,2.93,0l1.1-.06h0a86.59,86.59,0,0,0,9.83-1.08h0s0,.11.05.16a3.2,3.2,0,0,1,.1.42,2.61,2.61,0,0,1-.19,1.88,2.33,2.33,0,0,1-.27.37l-.06.05c-.33.32-.76.56-.75,1.08a1,1,0,0,0,.53.83,2.1,2.1,0,0,0,1.5.13h0l.32-.06.08,0c-3.29.1.1-2.49-.18-3.82v-.09a1.14,1.14,0,0,0-.38-.77h0a.47.47,0,0,0-.19-.15.33.33,0,0,0-.19-.06c.73-.14,1.43-.29,2.08-.46l.57-.15.26-.08.48-.16c0,.09,0,.18,0,.27a.59.59,0,0,0,0-.08l-.06-.19.07,0h0l.44-.17.49-.2,0,0,0,0,.38-.18.16-.08h0l.19-.1.21-.12.41-.23.39-.25.29-.19.24-.18a10.85,10.85,0,0,0,1.92-1.77l.22-.27.2-.27.16-.21a10.17,10.17,0,0,0,.9-1.61,11,11,0,0,0,.64-1.94C355.62,141.19,354.79,136.88,352.14,132Z"/><path class="cls-6" d="M349.09,156.17a.84.84,0,0,0,.26.07,1,1,0,0,0,.35,0l.1,0H350l.05,0a.31.31,0,0,0,.27-.09.12.12,0,0,0,.06-.06.37.37,0,0,0,.07-.14.4.4,0,0,0-.14-.38.55.55,0,0,0-.31-.18h0a1,1,0,0,0-.29-.12h0l-.2,0-.23,0a3.06,3.06,0,0,1-.51-.26h0a1.47,1.47,0,0,1-.42-.28,2.08,2.08,0,0,1-.41-.63,5,5,0,0,1-.39-1.2C346.23,155.34,347.25,156.1,349.09,156.17Z"/><path class="cls-7" d="M245,211.9a10.49,10.49,0,0,1-1.48-4,10.63,10.63,0,0,1,1.57-7.32c1.82-2.83,5.47-8.5,7.3-11.33a10.64,10.64,0,0,0-.58-12.29c-5.76-7.35-17.8-18.2-38.66-18.15-31.52.07-43.06,30.76-43.06,30.76s-10,22.17,4.24,42a50.1,50.1,0,0,0,18,15.53c0,.08-.1.16-.16.24h0c-.09.12-.18.23-.28.34l0,0c-.11.12-.23.23-.35.34-.53.45-1.13.8-1.69,1.2a2.11,2.11,0,0,0-.23.19.86.86,0,0,0-.15.22.91.91,0,0,0,.2.81,4.8,4.8,0,0,0,2.16,1.4l1.65.67a3.21,3.21,0,0,0,1,.29,1.1,1.1,0,0,0,.94-.35,1.19,1.19,0,0,0,.19-.89h0a2.82,2.82,0,0,0-.07-.31c-.11-.36-.28-.7-.36-1.06l0-.14a3.07,3.07,0,0,1,.27-1.54,45.88,45.88,0,0,0,14.6,3.8s23.84,2.68,40.92-16.59a10.58,10.58,0,0,0,1-12.59C250.2,220.35,246.7,214.72,245,211.9Z"/><path class="cls-8" d="M347.7,224.81C342.36,218,339,213,338.3,207a8.65,8.65,0,0,1,.75-4.27h0c1.47-3.58,4.73-7.59,7.73-12.27a34.21,34.21,0,0,0,3-5.82h0c3.12-7.71,2.41-15-2.69-19.37h0l-.06-.05a12.26,12.26,0,0,0-1.12-.86c-2.82-1.92-6.7-3.09-11.73-3.21h-1.46c-6.19.09-8.49,1.54-11,3a19.74,19.74,0,0,1-9.2,2.9c-.52,0-1.07.09-1.66.12-5.51.29-15.68-6.42-23.69-5.58a17.3,17.3,0,0,0-8.76,3.34,3.43,3.43,0,0,1-1.14-2.62c0-.46,0-1.11-.51-1.17a1.05,1.05,0,0,0-.4.07,7.79,7.79,0,0,0-4.28,3.5l0,.06c-.2.37-.31.91.09,1.13a1.42,1.42,0,0,0,.74,0,3.78,3.78,0,0,1,3,1.34c-10.69,11.93-8.23,39.21-8.49,52.39-.21,10.43-.91,14.89,4.56,22.15s14.4,11.53,20.51,10.8c10-1.19,10.92-5,18.91-5,7.29,0,11.78,2.08,16,3.84,10,4.13,21-.72,24.14-9.25C353.39,237.3,352.65,231.16,347.7,224.81Z"/><path class="cls-2" d="M351.55,242.22c-3.18,8.53-14.1,13.38-24.14,9.25-4.26-1.76-8.75-3.84-16-3.84-8,0-8.9,3.8-18.91,5-6.11.73-15-3.53-20.51-10.8s-4.77-11.72-4.56-22.15c.26-13.18-2.2-40.46,8.49-52.39-1.63-2.26-4.88-.36-3.8-2.57,5.91-.21,4,2.11,2.69,5.92-1.92,12,2.15,24.05,3.14,36.05.95,10.36,4.4,21.52,15.78,24.08,6.55,1.78,13.36-.7,20,.72C326.15,231.63,341.12,251.34,351.55,242.22Z"/><path class="cls-9" d="M243.88,237.75a.79.79,0,0,1,.69,1.37c-10.88,9.51-27.83,13.4-41.59,9.63-2.33-.61-5.66-3-7.61-.6v0c-.9,1-.05,2.35.21,3.43.13,1.77-4.28.05-5.64-1.29a.79.79,0,0,1,.11-1.2,8.08,8.08,0,0,0,2.05-1.66,1.06,1.06,0,0,0,.11-.21,3.74,3.74,0,0,0-.8-3.75c-16.77-8.71-25.85-28.79-20.85-47.2,1.46-4.62,1.81-2.63,2.51.71C180.49,225.7,215.78,244.2,243.88,237.75Z"/><path class="cls-10" d="M207.09,145.83c-1.28,4.11-9,7.54-12.62,7.66-.72.29-3.33-.16-3.88.52a.48.48,0,0,0-.09.36v0a1.53,1.53,0,0,0,.09,1.1,1.37,1.37,0,0,0,.5.92,6.12,6.12,0,0,0,1.3.58,1.21,1.21,0,0,1,.57.9,1.74,1.74,0,0,1-.34.61c-2.94,1.83-7.54.28-7.55.28-1.17-.06-1.49-1.45-.88-2.4a5.11,5.11,0,0,0,1.81-2.26h-.07c0-.35-.18-.65-.73-.85-6-1.29-12.16-5.24-13.55-11.61l0-.19c-1.52-14.43.08-29.13-.68-43.65a.61.61,0,0,1,0-.19c.34-4.09-.62-15,1.41-20.21a1.5,1.5,0,0,1,2.85.18c3.5,13.63,4.35,27.86,5.71,41.83v.09c.48,16.58,10.18,22.41,24.94,24.38A1.5,1.5,0,0,1,207.09,145.83Z"/><path class="cls-10" d="M238,64.86c-5.38,0-9.3,1.48-12.22,3.71h0c-.64.54-1.17,1-1.94,1.59-3.31,2.76-5.74,8-6.06,9a28.3,28.3,0,0,0-1.12,5.55c-.22,1.82-.29,3.67-.61,5.47A10.42,10.42,0,0,1,213.88,95s-.09.36,0,.45a.66.66,0,0,0,.52.15,6.07,6.07,0,0,0,2.63-.85,9.12,9.12,0,0,0,3.63-3.17c6.54-9.86-.59-25.58,17.75-26.63Z"/><path class="cls-9" d="M252.35,189.24c-1.83,2.83-5.48,8.5-7.3,11.33a10.63,10.63,0,0,0-1.57,7.32,12.41,12.41,0,0,0-.72-1.35c-2.37-4.1-.78-12,2-16a25.36,25.36,0,0,1,8-6.78,4.32,4.32,0,0,0,1.22-1.29A10.53,10.53,0,0,1,252.35,189.24Z"/><path class="cls-2" d="M350,184.16l-.21.53A38.18,38.18,0,0,1,346.6,191c-3.17,5.09-6.61,9.46-8.16,13.36a6.2,6.2,0,0,1,.06-.62,21.22,21.22,0,0,1,3.84-9.23c1.37-1.93,2.94-3.7,4.36-5.6.88-1.18,1-1.4,1.84-2.62C348.71,186.05,349.66,184,350,184.16Z"/><path class="cls-11" d="M351,156c-1.05,1.87-4.06,1.66-6,2.24-3.94.09,1.88-3.82-1-4.9a26.25,26.25,0,0,0,3.39-.85c0,.09,0,.18,0,.27-1.23,2.58-.21,3.34,1.63,3.41.85.07,1.78-.53.65-.92l-.19,0c-1.83-.17-1.91-1.28-2.09-2.45a.59.59,0,0,0,0-.08c.82,2.63,2.3,1.34,3.46,2.51h0A.84.84,0,0,1,351,156Z"/><path class="cls-11" d="M354.21,146.59a8.25,8.25,0,0,1-.9,1.61l-.16.21-.2.27-.22.27a11.56,11.56,0,0,1-1.92,1.77l-.24.18-.29.19-.39.25-.41.23-.07,0-.14.08-.19.1h0l-.16.08-.38.18,0,0,0,0-.49.2-.44.17h0l-.07,0,.06.19a.59.59,0,0,1,0,.08c0-.09,0-.18,0-.27l-.48.16-.26.08-.57.15c-.65.17-1.35.32-2.08.46a.51.51,0,0,0-.3,0l-.07,0h0a33.6,33.6,0,0,1-9.83,1.08h0a107.46,107.46,0,0,1-13.71-1.62h0a66.28,66.28,0,0,0-12-1H308a32.37,32.37,0,0,0-6.28.77c-.88.2-1.83.39-2.85.58h-.06a80.55,80.55,0,0,1-12.25,1.29h-.14a41.42,41.42,0,0,1-12.7-1.4h-.06c-7.92-2.43-12.55-8.36-6.76-20.92v0c22.23-42.17,32-73.94,45.86-66.84a.32.32,0,0,1-.25.58c-16.55-6-25.26,35.74-33.77,48.66-.28.44-1.57,2.3-1.8,2.76-16.88,34,28.39,12.63,44.26,20.25h0c6.31,2,12.47,4.52,18.85,6.34C344.6,145.36,349.38,147.37,354.21,146.59Z"/><path class="cls-12" d="M191.43,64.43l-3.24,0,.14,0a8.22,8.22,0,0,1,2.16,0Z"/><path class="cls-13" d="M207.56,252.18l4.9.41Z"/><path class="cls-13" d="M238.4,64.34l-2.3,0Z"/><path class="cls-13" d="M190.49,64.35h0Z"/><path class="cls-12" d="M195.62,65.34l-.68-.19Z"/><path class="cls-12" d="M192.11,64.52l-.4,0Z"/><path class="cls-12" d="M201.68,68.85l-.39-.3Z"/><path class="cls-12" d="M202.09,69.15l-.26-.2Z"/><path class="cls-12" d="M193.6,64.79l-.14.19-.14-.24Z"/><path class="cls-12" d="M192.92,64.66l-.13.18-.14-.23Z"/><path class="cls-13" d="M234.35,64.53l-.67.1Z"/><path class="cls-14" d="M346.32,164.6l-.38-.24Z"/><path class="cls-13" d="M328.27,161.6l-.67.15Z"/><path class="cls-13" d="M327.6,161.75l-.55.13Z"/><path class="cls-15" d="M256.45,138.26l0-.31Z"/><path class="cls-12" d="M255.8,79.33c0-.12-.06-.24-.1-.37C255.74,79.09,255.77,79.21,255.8,79.33Z"/><path class="cls-13" d="M235.29,64.39l-.54.09Z"/><path class="cls-13" d="M192.39,164.07l-.43.24Z"/><path class="cls-13" d="M256.12,140.58l.09-.43Z"/><path class="cls-13" d="M256.25,139.9l.08-.43Z"/><path class="cls-13" d="M187.25,64.42l-.41.06Z"/><path class="cls-13" d="M351.6,172.72l-.09-.36Z"/><path class="cls-13" d="M252.42,233.81l.1-.22Z"/><path class="cls-13" d="M252.55,233.54l.1-.22Z"/><path class="cls-13" d="M253,232.6l.1-.23Z"/><path class="cls-15" d="M192.91,158.29l.14-.21Z"/><path class="cls-15" d="M192.52,158.59l.2-.12Z"/><path class="cls-13" d="M351.45,172.05l-.08-.24Z"/><path class="cls-13" d="M191,164.86l-.26.15Z"/><path class="cls-14" d="M346.66,164.87l-.17-.13Z"/><path class="cls-13" d="M191.29,164.71l-.27.15Z"/><path class="cls-13" d="M191.7,164.46l-.25.15Z"/><path class="cls-13" d="M192,164.31l-.27.15Z"/><path class="cls-14" d="M345.88,164.33l-.2-.11Z"/><path class="cls-13" d="M193.19,163.65l-.26.14Z"/><path class="cls-14" d="M345.64,164.2l-.24-.14Z"/><path class="cls-13" d="M192.92,163.79l-.26.14Z"/><path class="cls-13" d="M192.65,163.93l-.26.14Z"/><path class="cls-13" d="M179.3,67.51l-.15.11Z"/><path class="cls-13" d="M179.7,67.22l-.16.12Z"/><path class="cls-13" d="M179.84,67.12l-.14.1Z"/><path class="cls-13" d="M191.44,164.61l-.16.11Z"/><path class="cls-14" d="M346.48,164.73l-.12-.11Z"/><path class="cls-13" d="M178,68.6l-.14.12Z"/><path class="cls-14" d="M346.81,165h0Z"/><path class="cls-13" d="M190.77,165l-.17.11Z"/><path class="cls-14" d="M347,165.13l-.06-.06S347,165.09,347,165.13Z"/><path class="cls-13" d="M190.5,165.17l-.15.1Z"/><path class="cls-13" d="M179.15,67.62l-.15.12Z"/><path class="cls-14" d="M347.13,165.27a.28.28,0,0,1-.1-.09Z"/><path class="cls-14" d="M347.27,165.41l-.11-.11Z"/><path class="cls-12" d="M255.52,78.24a.54.54,0,0,1-.05-.11s0,0,0,0Z"/><path class="cls-12" d="M255.4,77.81a.47.47,0,0,1-.06-.09s0,0,0,0Z"/><path class="cls-12" d="M255.26,77.4s0-.05-.06-.09,0,0,0,0Z"/><path class="cls-12" d="M194.09,64.9h0Z"/><path class="cls-12" d="M194.62,65h0Z"/><path class="cls-13" d="M175.77,179.39l-.11.15Z"/><path class="cls-13" d="M175.6,179.64l-.1.15Z"/><path class="cls-13" d="M175.49,179.79l-.11.16Z"/><path class="cls-13" d="M175.38,180l-.1.15Z"/><path class="cls-13" d="M253.56,230.48l0-.16Z"/><path class="cls-13" d="M253.11,232.21l0-.12Z"/><path class="cls-12" d="M195.87,65.45a.08.08,0,0,0-.08,0A.05.05,0,0,1,195.87,65.45Z"/><path class="cls-13" d="M252.84,232.89l0-.12Z"/><path class="cls-13" d="M252.71,233.17l.07-.13Z"/><path class="cls-13" d="M252.31,234l.08-.13Z"/><path class="cls-13" d="M252.17,234.24l.07-.11Z"/><path class="cls-13" d="M178.76,67.92l-.14.11Z"/><path class="cls-13" d="M178.61,68l-.14.13Z"/><path class="cls-13" d="M177.67,69h-.15l.15-.12Z"/><path class="cls-13" d="M177.81,68.72l-.14.13Z"/><path class="cls-16" d="M218.58,185.8a4.45,4.45,0,0,1,4.28-4.48c1.63,0,2.47,1,2.46,2.8,0,2.18-2.39,4.84-4.33,4.84C219.66,189,218.58,187.54,218.58,185.8Z"/><path class="cls-16" d="M320.66,184.2H321c6.13.39-.28,6.63-2.7,7.73a1.69,1.69,0,0,1-.8.17,2.84,2.84,0,0,1-2.44-3.92A7.62,7.62,0,0,1,320.66,184.2Z"/><path class="cls-14" d="M307.47,166.41l.3.1Z"/><path class="cls-16" d="M242.26,82.46c-3.47-2-5.56,8.46-2.89,8.77C242.35,91.58,243.79,83.34,242.26,82.46Z"/><path class="cls-12" d="M239.31,64.58a.23.23,0,0,1,0,0l.05,0s0,0,0,0Z"/><path class="cls-10" d="M253.19,144.43l0,0c.72.49.3,1.27-.11,1.82-2.7,3.64-6.94,5.47-11.29,6.15a32.07,32.07,0,0,1-14.42-.77,14.25,14.25,0,0,1-7.39-5.14c-2-2.85-2.78-6.32-3.29-9.7s-.63-7.14-2-10.32c-.36-.82-1.05-1.72-1.93-1.59s-1.3,1.21-1.5,2.11a80.59,80.59,0,0,0-1.48,9.65c-.06.65-.49,2.68-.64,2-.36-1.65-.17-4.92-.25-7.38-.07-2.2.23-4.86-.34-7-.14-.53-.4-1-.58-1.54a7,7,0,0,1,3-8,9,9,0,0,1,9.5.47c2.83,1.71,4.43,4.45,5.6,7.41s2,6.11,3.18,9.11a13.94,13.94,0,0,0,5.09,6.14,30.12,30.12,0,0,0,7.6,3.77,39.37,39.37,0,0,0,9.26,2.53A4.21,4.21,0,0,1,253.19,144.43Z"/><path class="cls-16" d="M320.45,104.88a1.72,1.72,0,0,1-.22,1.24c-.5.77-1.33.74-2.28.08-2.16-1.71-3.56-5.92-2.83-8.06.42-1.28,1.13-1.35,2-.49A13.13,13.13,0,0,1,320.45,104.88Z"/><path class="cls-11" d="M352.43,156.86l-.2-.3"/><path class="cls-11" d="M343.82,153.28a1.65,1.65,0,0,1,.64,1.63,3.76,3.76,0,0,1-.79,1.66,1.24,1.24,0,0,0-.37,1,1,1,0,0,0,.74.6,1.61,1.61,0,0,0,1,0,1.29,1.29,0,0,0,.67-.67,2.63,2.63,0,0,0,.21-1,9.4,9.4,0,0,0-.06-1.59,4.44,4.44,0,0,0-.28-1.3,1.92,1.92,0,0,0-1-1C344.23,152.4,343.69,152.42,343.82,153.28Z"/><path class="cls-11" d="M347.44,152.49l.06.19a.59.59,0,0,1,0,.08c0-.09,0-.18,0-.27v0h.1Z"/><path class="cls-11" d="M349.65,155.22l-.23-.05.2,0Z"/></g></g></svg>