<svg xmlns="http://www.w3.org/2000/svg" viewBox="0 0 288.67 74.3"><defs><style>.cls-1{fill:#231f20;}.cls-2{fill:#f8bf7f;stroke:#7c421f;stroke-miterlimit:10;}.cls-3{fill:#f8b062;}.cls-4{fill:#cdab98;}.cls-5{fill:#7c421f;}.cls-6{fill:#d3d3d3;}.cls-7{fill:#3b7590;}.cls-8{fill:#e2f4fd;}.cls-9{fill:#f3fafe;}.cls-10{fill:#ce5252;}.cls-11{fill:#fee87e;}.cls-12{fill:#a9c060;}.cls-13{fill:#5fc8f2;}.cls-14{fill:#7c7640;}.cls-15{fill:#7e3e3e;}.cls-16{fill:#a48241;}.cls-17{fill:#bc4e4d;}.cls-18{fill:#47a8d6;}.cls-19{fill:#806c4e;}.cls-20{fill:#fff;}</style></defs><g id="Layer_2" data-name="Layer 2"><g id="Layer_1-2" data-name="Layer 1"><path class="cls-1" d="M87.58,31V42.82H82.82V15.91h4.65V26.07h.24a5.86,5.86,0,0,1,2.2-2.7,6.65,6.65,0,0,1,3.8-1,7.41,7.41,0,0,1,3.67.88,6,6,0,0,1,2.42,2.58,9,9,0,0,1,.86,4.14V42.82H95.91V30.7a4.51,4.51,0,0,0-1-3.17,3.75,3.75,0,0,0-2.92-1.14,4.63,4.63,0,0,0-2.25.55,3.78,3.78,0,0,0-1.55,1.57A5,5,0,0,0,87.58,31Z"/><path class="cls-1" d="M112.23,43.23a8.3,8.3,0,0,1-3.45-.69,5.55,5.55,0,0,1-2.41-2,5.88,5.88,0,0,1-.89-3.34,5.69,5.69,0,0,1,.63-2.82,4.92,4.92,0,0,1,1.72-1.79,9.36,9.36,0,0,1,2.46-1,20.19,20.19,0,0,1,2.85-.5c1.18-.12,2.14-.24,2.88-.34a4,4,0,0,0,1.6-.47,1.1,1.1,0,0,0,.51-1v-.08a3,3,0,0,0-.88-2.3,3.58,3.58,0,0,0-2.54-.82,4.56,4.56,0,0,0-2.76.76,3.71,3.71,0,0,0-1.37,1.81l-4.44-.64a7.13,7.13,0,0,1,1.73-3.08,7.66,7.66,0,0,1,3-1.86,11.28,11.28,0,0,1,3.86-.63,13,13,0,0,1,2.9.34,8.21,8.21,0,0,1,2.64,1.13A5.82,5.82,0,0,1,122.16,26a7,7,0,0,1,.73,3.35V42.82h-4.57V40.05h-.16a5.9,5.9,0,0,1-1.22,1.57,5.79,5.79,0,0,1-2,1.16A7.66,7.66,0,0,1,112.23,43.23Zm1.24-3.5a5.13,5.13,0,0,0,2.48-.57,4.17,4.17,0,0,0,1.62-1.52,3.92,3.92,0,0,0,.57-2.06V33.2a2.12,2.12,0,0,1-.75.34,10.47,10.47,0,0,1-1.19.28l-1.3.21-1.12.16a7.89,7.89,0,0,0-1.9.47,3.18,3.18,0,0,0-1.33.91,2.3,2.3,0,0,0-.49,1.51,2.27,2.27,0,0,0,1,2A4.17,4.17,0,0,0,113.47,39.73Z"/><path class="cls-1" d="M137.41,43.21a9.75,9.75,0,0,1-5.18-1.32,8.86,8.86,0,0,1-3.33-3.68,12.05,12.05,0,0,1-1.16-5.4,12,12,0,0,1,1.18-5.44,8.91,8.91,0,0,1,3.35-3.68,9.6,9.6,0,0,1,5.11-1.32,10.08,10.08,0,0,1,4.36.9,7.47,7.47,0,0,1,3,2.54,7.61,7.61,0,0,1,1.29,3.82h-4.55a4.34,4.34,0,0,0-1.31-2.44,3.82,3.82,0,0,0-2.75-1,4.31,4.31,0,0,0-2.56.78,5.05,5.05,0,0,0-1.72,2.24,9.17,9.17,0,0,0-.61,3.5,9.23,9.23,0,0,0,.61,3.54,5.11,5.11,0,0,0,1.7,2.27,4.28,4.28,0,0,0,2.58.8,4.44,4.44,0,0,0,1.89-.4,3.84,3.84,0,0,0,1.4-1.17,4.56,4.56,0,0,0,.77-1.85h4.55a8,8,0,0,1-1.26,3.79,7.47,7.47,0,0,1-3,2.58A10,10,0,0,1,137.41,43.21Z"/><path class="cls-1" d="M150.9,42.82V15.91h4.75V42.82Zm4.33-6.34V30.74H156l7.25-8.1h5.56l-8.92,9.93h-1Zm8.33,6.34L157,33.63l3.21-3.35,9.05,12.54Z"/><path class="cls-1" d="M188.82,28l-4.33.47a3.72,3.72,0,0,0-.64-1.23,3.13,3.13,0,0,0-1.22-.93,4.35,4.35,0,0,0-1.86-.36,4.6,4.6,0,0,0-2.49.64,1.89,1.89,0,0,0-1,1.67,1.73,1.73,0,0,0,.65,1.44,5.41,5.41,0,0,0,2.2.9l3.44.74a8.64,8.64,0,0,1,4.26,2,4.6,4.6,0,0,1,1.41,3.5,5.39,5.39,0,0,1-1.11,3.36,7.2,7.2,0,0,1-3,2.27,11.48,11.48,0,0,1-4.46.81,10.33,10.33,0,0,1-6-1.56A6.17,6.17,0,0,1,172,37.31l4.64-.44A3.25,3.25,0,0,0,178,38.93a4.67,4.67,0,0,0,2.66.7,4.84,4.84,0,0,0,2.73-.7,2,2,0,0,0,1-1.72,1.79,1.79,0,0,0-.66-1.43,4.72,4.72,0,0,0-2.06-.87l-3.44-.72a8.21,8.21,0,0,1-4.3-2,5,5,0,0,1-1.38-3.64,5.14,5.14,0,0,1,1-3.24,6.61,6.61,0,0,1,2.88-2.13,11.24,11.24,0,0,1,4.26-.76,9.25,9.25,0,0,1,5.59,1.51A6.36,6.36,0,0,1,188.82,28Z"/><path class="cls-1" d="M202.91,43.21a9.75,9.75,0,0,1-5.18-1.32,8.86,8.86,0,0,1-3.33-3.68,12.05,12.05,0,0,1-1.16-5.4,12.13,12.13,0,0,1,1.18-5.44,8.91,8.91,0,0,1,3.35-3.68,9.61,9.61,0,0,1,5.12-1.32,10,10,0,0,1,4.35.9,7.47,7.47,0,0,1,3,2.54,7.61,7.61,0,0,1,1.29,3.82H207a4.34,4.34,0,0,0-1.31-2.44,3.82,3.82,0,0,0-2.75-1,4.31,4.31,0,0,0-2.56.78,5.05,5.05,0,0,0-1.72,2.24,9.17,9.17,0,0,0-.61,3.5,9.42,9.42,0,0,0,.61,3.54,5.11,5.11,0,0,0,1.7,2.27,4.28,4.28,0,0,0,2.58.8,4.44,4.44,0,0,0,1.89-.4,3.84,3.84,0,0,0,1.4-1.17,4.56,4.56,0,0,0,.77-1.85h4.55a8,8,0,0,1-1.26,3.79,7.47,7.47,0,0,1-3,2.58A10,10,0,0,1,202.91,43.21Z"/><path class="cls-1" d="M246.72,50.39V22.64h4.68V26h.28a8.65,8.65,0,0,1,1-1.57A5.66,5.66,0,0,1,254.53,23a6.24,6.24,0,0,1,2.92-.6,7.79,7.79,0,0,1,4.22,1.19,8.21,8.21,0,0,1,3,3.51,13.1,13.1,0,0,1,1.11,5.68,13.33,13.33,0,0,1-1.09,5.65,8.33,8.33,0,0,1-3,3.55,7.63,7.63,0,0,1-4.26,1.22,6.28,6.28,0,0,1-2.88-.58,5.63,5.63,0,0,1-1.83-1.4,8.18,8.18,0,0,1-1.07-1.55h-.2V50.39Zm4.67-17.66a9.49,9.49,0,0,0,.56,3.43,5.14,5.14,0,0,0,1.61,2.29,4.48,4.48,0,0,0,5.21,0,5.14,5.14,0,0,0,1.61-2.32,9.57,9.57,0,0,0,.55-3.37,9.55,9.55,0,0,0-.54-3.34,5.08,5.08,0,0,0-1.6-2.29,4.22,4.22,0,0,0-2.66-.82,4.16,4.16,0,0,0-2.59.8,4.9,4.9,0,0,0-1.61,2.24A9.76,9.76,0,0,0,251.39,32.73Z"/><path class="cls-1" d="M279.7,43.21a10.27,10.27,0,0,1-5.24-1.27,8.41,8.41,0,0,1-3.38-3.6,12,12,0,0,1-1.19-5.49,12.08,12.08,0,0,1,1.19-5.48,9.07,9.07,0,0,1,3.33-3.68,9.42,9.42,0,0,1,5-1.32A10.25,10.25,0,0,1,283,23a8.09,8.09,0,0,1,2.95,1.85,8.71,8.71,0,0,1,2,3.17,12.82,12.82,0,0,1,.74,4.58V34H272.13V30.82h12a5.15,5.15,0,0,0-.59-2.44,4.33,4.33,0,0,0-1.61-1.68,4.52,4.52,0,0,0-2.4-.62,4.66,4.66,0,0,0-2.56.7,4.79,4.79,0,0,0-1.71,1.84,5.29,5.29,0,0,0-.63,2.49v2.8a6.62,6.62,0,0,0,.64,3,4.52,4.52,0,0,0,1.8,1.92,5.31,5.31,0,0,0,2.71.67,5.58,5.58,0,0,0,1.88-.3,4.2,4.2,0,0,0,1.46-.87,3.77,3.77,0,0,0,.93-1.43l4.44.49a6.9,6.9,0,0,1-1.59,3.07,7.89,7.89,0,0,1-3,2A11.5,11.5,0,0,1,279.7,43.21Z"/></g><g id="Layer_2-2" data-name="Layer 2"><circle class="cls-2" cx="228.92" cy="32.56" r="13.3"/><path class="cls-3" d="M240.92,33.52c-.63,1.33-.89,2.73-1.58,4-.26.45-1.14,0-1.52.45s-.25,1.58-.57,2.15c-.82,1.52-2.85,1.83-4.62,1.77-.51,0-1,.51-1.58.63a3.71,3.71,0,0,1-2-.31,54.4,54.4,0,0,0-6.33-2.35c-.76-.25-1.71-.31-2.21-1l-1.14-1.51c-.69-.86-1.69-.79-2.7-.69a13,13,0,0,0,25.29-3.8l-.25.12C241.36,33.14,241,33.27,240.92,33.52Z"/><path class="cls-4" d="M234.55,37l.49,0Z"/><path class="cls-5" d="M221,28.71a1.65,1.65,0,0,0-1.36,2,1.23,1.23,0,0,0,.72.69,3.47,3.47,0,0,0,1,.19,1.28,1.28,0,0,0,1.09-.26,1.13,1.13,0,0,0,.21-.76,2.25,2.25,0,0,0-.41-1.41A1.1,1.1,0,0,0,221,28.71Z"/><path class="cls-5" d="M226.44,23a3.52,3.52,0,0,0-.86.05,1.16,1.16,0,0,0-.69.47,6.38,6.38,0,0,0-.26.88,3.9,3.9,0,0,0-.2.47,1.15,1.15,0,0,0,.16.78,2.11,2.11,0,0,0,1.63,1.05,1.94,1.94,0,0,0,1.73-.83,1.79,1.79,0,0,0,0-1.9A2,2,0,0,0,226.44,23Z"/><path class="cls-5" d="M228.21,30.21a2.14,2.14,0,0,0-1.55.81,1.57,1.57,0,0,0-.13,1.7,2,2,0,0,0,.79.69,2.13,2.13,0,0,0,1.77.2,1.71,1.71,0,0,0,.88-2.09A1.89,1.89,0,0,0,228.21,30.21Z"/><path class="cls-5" d="M222.37,36.69a1.38,1.38,0,0,0-1.61.92,2.69,2.69,0,0,0,.12,1.48,1,1,0,0,0,.88.85,2.19,2.19,0,0,0,1.53.07,1.89,1.89,0,0,0,.83-1,1.83,1.83,0,0,0,0-1.73A2,2,0,0,0,222.37,36.69Z"/><path class="cls-5" d="M232.22,37.93a3.87,3.87,0,0,0-1,.5,1.65,1.65,0,0,0-.65.89,1.75,1.75,0,0,0,.22,1.22,1.68,1.68,0,0,0,1.22,1,1.81,1.81,0,0,0,1-.26,2.12,2.12,0,0,0,.87-.78,1.68,1.68,0,0,0-.08-1.74C233.44,38.2,232.8,37.73,232.22,37.93Z"/><path class="cls-5" d="M233.9,25.43a3.7,3.7,0,0,0-1,.43,1.27,1.27,0,0,0-.57.84,1.23,1.23,0,0,0,.57,1.12,2.54,2.54,0,0,0,1.27.34A1,1,0,0,0,235,28a1,1,0,0,0,.25-.61,2.19,2.19,0,0,0-.15-1.34A1,1,0,0,0,233.9,25.43Z"/><path class="cls-5" d="M237.29,31a3.26,3.26,0,0,0-1,.26,1.22,1.22,0,0,0-.69.75,1.83,1.83,0,0,0,.3,1.23,1.5,1.5,0,0,0,.6.73,1.47,1.47,0,0,0,1,0,1.69,1.69,0,0,0,1.25-.87,1.25,1.25,0,0,0-.08-.89A2.12,2.12,0,0,0,237.29,31Z"/><rect class="cls-6" x="3.83" y="54.43" width="28.24" height="3.83" rx="1.91" transform="translate(-34.58 29.2) rotate(-45)"/><circle class="cls-7" cx="46.12" cy="28.17" r="28.17"/><circle class="cls-8" cx="46.25" cy="28.05" r="25.6"/><rect class="cls-7" x="-3.02" y="59.37" width="28.24" height="7.66" rx="3.83" transform="translate(-41.43 26.36) rotate(-45)"/><path class="cls-9" d="M62.88,13.75l.19-.08a.88.88,0,0,0,.37-1.28,18.14,18.14,0,0,0-13.2-8,.92.92,0,0,0-1,.84h0a.92.92,0,0,0,.81,1,16.56,16.56,0,0,1,11.66,7.24A1,1,0,0,0,62.88,13.75Z"/><path class="cls-10" d="M44.92,15.32a4.3,4.3,0,0,0-.54-2.18,4,4,0,0,0-1.56-1.45,3.48,3.48,0,0,0-2.74,0,4.18,4.18,0,0,0-2,1.88,8.69,8.69,0,0,0-.57,2.54,1.33,1.33,0,0,1-.17.52l0,0a.38.38,0,0,1-.33,0l-.06,0a1.15,1.15,0,0,1-.13-.49,9.37,9.37,0,0,0-.56-2.54,4.18,4.18,0,0,0-1.93-1.88,3.38,3.38,0,0,0-2.7,0,4.13,4.13,0,0,0-1.53,1.45,4.5,4.5,0,0,0-.52,2.18c-.06,1.08-.05,2.16,0,3.23,0,1.68,0,3.36,0,5a4.16,4.16,0,0,0,.59,2.57,3.58,3.58,0,0,0,2.2,1.25h0a.93.93,0,0,1-.32.4l-.09.07c-.08.05-.16.11-.17.19s.14.17.25.2a3.35,3.35,0,0,0,1.18.09.58.58,0,0,0,.32-.1.19.19,0,0,0,.07-.26.2.2,0,0,0-.1-.08.8.8,0,0,1-.23-.1.24.24,0,0,1-.09-.17.67.67,0,0,1,0-.2,4.54,4.54,0,0,0,1.83-.4,2.94,2.94,0,0,0,1.44-1.6,17.56,17.56,0,0,0,.42-2.71c0-.17.12-.36.29-.36h0c.17,0,.25.19.29.36a19,19,0,0,0,.48,2.71A2.63,2.63,0,0,0,39.31,27a5.61,5.61,0,0,0,2.38.35,3.47,3.47,0,0,0,2.63-1.14,4.1,4.1,0,0,0,.6-2.57c0-1.68,0-3.36,0-5C45,17.48,45,16.4,44.92,15.32Z"/><path class="cls-11" d="M61.92,23.47c-3-5.79-4.71-9.52-6.14-11.15l0,0a2.27,2.27,0,0,0-1.42-.93c-1.84-.2-3.61,3.82-7.71,12.13-1.15,2.32-.12,3.32,1.33,3.73h0a8.12,8.12,0,0,0,1.63.24h.65c.49,0,.91,0,1.21-.07s.47-.06.7-.1l.27-.06h0l.51-.11A7,7,0,0,1,54.06,27h0a8.07,8.07,0,0,1,.85,0,7.63,7.63,0,0,1,1.07.13l.21,0h0l.51.12a5.55,5.55,0,0,0,1.2.19h.72a15.09,15.09,0,0,0,1.75-.19h0v0a.19.19,0,0,1,0,.07.44.44,0,0,1,0,.34l0,.06h0c-.06.06-.14.1-.13.19a.17.17,0,0,0,.09.15.36.36,0,0,0,.27,0h.07c-.58,0,0-.44,0-.68v0a.21.21,0,0,0-.07-.13h0l0,0h0l.37-.08.1,0,.05,0,.08,0a.07.07,0,0,1,0,.05v-.05h0l.08,0,.09,0h0l.07,0,0,0h0l0,0,0,0,.07,0,.07,0,.06,0,0,0a2,2,0,0,0,.34-.31l0,0,0-.05,0,0a1.12,1.12,0,0,0,.16-.28,2.06,2.06,0,0,0,.12-.35A3.37,3.37,0,0,0,61.92,23.47Z"/><path class="cls-11" d="M61.37,27.77h.17a0,0,0,0,0,.05,0h0a0,0,0,0,0,0,0,0,0,0,0,0,0-.06l-.06,0h0l-.06,0h-.08l-.09-.05h0a.18.18,0,0,1-.07-.05.28.28,0,0,1-.08-.11,1.72,1.72,0,0,1-.07-.21C60.86,27.62,61.05,27.76,61.37,27.77Z"/><path class="cls-12" d="M42.86,37.68a1.87,1.87,0,0,1-.27-.71,1.93,1.93,0,0,1,.28-1.3c.33-.51,1-1.51,1.3-2a1.9,1.9,0,0,0,.29-1.2,1.82,1.82,0,0,0-.39-1,8.44,8.44,0,0,0-6.88-3.23c-5.6,0-7.65,5.47-7.65,5.47a8,8,0,0,0,.75,7.47,8.91,8.91,0,0,0,3.2,2.76.05.05,0,0,1,0,0h0l0,.06h0l-.06.06a3.21,3.21,0,0,1-.3.21s0,0,0,0l0,0a.18.18,0,0,0,0,.14.82.82,0,0,0,.38.25l.3.12a.48.48,0,0,0,.17.05A.18.18,0,0,0,34,44.9a.21.21,0,0,0,0-.16h0a.13.13,0,0,0,0-.06A1.27,1.27,0,0,1,34,44.5v0a.65.65,0,0,1,0-.27,8.23,8.23,0,0,0,2.6.67,9,9,0,0,0,7.27-2.95,1.88,1.88,0,0,0,.19-2.24Z"/><path class="cls-13" d="M61.13,40a6.65,6.65,0,0,1-1.68-3.17,1.64,1.64,0,0,1,.14-.76h0A18,18,0,0,1,61,33.87a5.43,5.43,0,0,0,.54-1h0A2.89,2.89,0,0,0,61,29.39h0l-.2-.15a3.81,3.81,0,0,0-2.08-.57h-.26a3.28,3.28,0,0,0-2,.53,3.6,3.6,0,0,1-1.64.52l-.3,0c-1,.05-2.78-1.15-4.21-1a3.14,3.14,0,0,0-1.56.6.61.61,0,0,1-.2-.47c0-.08,0-.2-.09-.2a.09.09,0,0,0-.07,0,1.39,1.39,0,0,0-.76.62h0c0,.07-.05.16,0,.2a.29.29,0,0,0,.13,0,.65.65,0,0,1,.53.24c-1.9,2.12-1.46,7-1.51,9.31,0,1.86-.16,2.65.82,3.94a4.52,4.52,0,0,0,3.64,1.92c1.78-.21,1.94-.89,3.37-.89a6.58,6.58,0,0,1,2.85.69,3.24,3.24,0,0,0,4.29-1.65A3.14,3.14,0,0,0,61.13,40Z"/><path class="cls-7" d="M61.81,43.07a3.24,3.24,0,0,1-4.29,1.65A6.58,6.58,0,0,0,54.67,44c-1.43,0-1.59.68-3.37.89A4.52,4.52,0,0,1,47.66,43c-1-1.29-.85-2.08-.82-3.94,0-2.34-.39-7.19,1.51-9.31-.29-.4-.86-.07-.67-.46,1,0,.71.38.48,1.05-.35,2.14.38,4.28.56,6.41.16,1.84.78,3.83,2.8,4.28,1.17.32,2.38-.12,3.55.13C57.29,41.19,60,44.69,61.81,43.07Z"/><path class="cls-14" d="M42.66,42.28a.14.14,0,0,1,.13.24,8.42,8.42,0,0,1-7.4,1.71c-.41-.1-1-.53-1.35-.1h0c-.16.17,0,.42,0,.61s-.76,0-1-.23a.14.14,0,0,1,0-.21,1.31,1.31,0,0,0,.36-.3l0,0a.65.65,0,0,0-.14-.67,7.41,7.41,0,0,1-3.7-8.4c.25-.82.32-.46.44.13C31.39,40.13,37.67,43.42,42.66,42.28Z"/><path class="cls-15" d="M36.12,25.93c-.23.73-1.6,1.34-2.24,1.36-.13.06-.59,0-.69.1s0,0,0,.06h0a.5.5,0,0,0,.11.36.8.8,0,0,0,.23.1.21.21,0,0,1,.1.16.24.24,0,0,1-.06.11,1.89,1.89,0,0,1-1.34,0c-.21,0-.27-.26-.16-.43a.93.93,0,0,0,.32-.4h0c0-.06,0-.12-.13-.15a3,3,0,0,1-2.41-2.07,0,0,0,0,0,0,0c-.27-2.57,0-5.18-.12-7.76v0a15.18,15.18,0,0,1,.25-3.59.27.27,0,0,1,.51,0,50.05,50.05,0,0,1,1,7.44h0c.08,2.95,1.81,4,4.43,4.34A.27.27,0,0,1,36.12,25.93Z"/><path class="cls-15" d="M41.62,11.53a3.58,3.58,0,0,0-2.18.66h0l-.34.29A4.6,4.6,0,0,0,38,14.08a4.7,4.7,0,0,0-.2,1c0,.32,0,.65-.11,1a1.87,1.87,0,0,1-.38.85s0,.06,0,.08a.13.13,0,0,0,.09,0,1,1,0,0,0,.47-.15,1.65,1.65,0,0,0,.64-.56c1.17-1.76-.1-4.55,3.16-4.74Z"/><path class="cls-14" d="M44.17,33.65c-.32.51-1,1.51-1.3,2a1.93,1.93,0,0,0-.28,1.3,1.79,1.79,0,0,0-.12-.24,3.12,3.12,0,0,1,.36-2.84,4.43,4.43,0,0,1,1.41-1.21.69.69,0,0,0,.22-.23A1.9,1.9,0,0,1,44.17,33.65Z"/><path class="cls-7" d="M61.54,32.75l0,.09A6.66,6.66,0,0,1,60.93,34a19.27,19.27,0,0,0-1.45,2.37.34.34,0,0,1,0-.1,3.76,3.76,0,0,1,.68-1.65c.25-.34.53-.65.78-1l.33-.47C61.31,33.08,61.47,32.72,61.54,32.75Z"/><path class="cls-16" d="M61.71,27.74c-.18.33-.72.3-1.07.4-.7,0,.34-.68-.17-.87a5.26,5.26,0,0,0,.6-.15.07.07,0,0,1,0,.05c-.22.45,0,.59.29.6.15,0,.32-.09.12-.16h0c-.33,0-.35-.23-.38-.43v0c.15.47.41.24.62.45h0A.13.13,0,0,1,61.71,27.74Z"/><path class="cls-16" d="M62.28,26.07a1.12,1.12,0,0,1-.16.28l0,0,0,.05,0,0a2.5,2.5,0,0,1-.34.31l0,0-.06,0-.07,0-.07,0h0l0,0h0l0,0-.07,0h0l-.09,0-.08,0h0v.05a.07.07,0,0,0,0-.05l-.08,0-.05,0-.1,0-.37.08H60.4a5.84,5.84,0,0,1-1.75.19h0a18.1,18.1,0,0,1-2.43-.29h0A12.76,12.76,0,0,0,54.08,27h0a6,6,0,0,0-1.11.13l-.51.11h0a15.36,15.36,0,0,1-2.18.23h0A7.43,7.43,0,0,1,48,27.23h0c-1.41-.44-2.23-1.49-1.2-3.72h0c4-7.5,5.69-13.15,8.15-11.88a.05.05,0,0,1,0,.1c-2.95-1.06-4.49,6.36-6,8.65,0,.08-.28.41-.32.49-3,6,5.05,2.25,7.87,3.6h0c1.12.37,2.21.81,3.35,1.13A5.46,5.46,0,0,0,62.28,26.07Z"/><path class="cls-17" d="M33.34,11.46h-.17Z"/><path class="cls-4" d="M36.21,44.84l.87.08Z"/><path class="cls-4" d="M41.69,11.44h0Z"/><path class="cls-4" d="M33.17,11.44h0Z"/><path class="cls-17" d="M34.08,11.62l-.12,0Z"/><path class="cls-17" d="M33.46,11.47h0Z"/><path class="cls-17" d="M35.16,12.24l-.07-.05Z"/><path class="cls-17" d="M35.23,12.3l0,0Z"/><path class="cls-17" d="M33.72,11.52l0,0,0,0Z"/><path class="cls-17" d="M33.6,11.5l0,0,0,0Z"/><path class="cls-4" d="M41,11.47l-.12,0Z"/><path class="cls-18" d="M60.88,29.27l-.07,0Z"/><path class="cls-4" d="M57.67,28.74l-.12,0Z"/><path class="cls-4" d="M57.55,28.76l-.1,0Z"/><path class="cls-19" d="M44.9,24.59v0Z"/><path class="cls-17" d="M44.78,14.11v0Z"/><path class="cls-4" d="M41.14,11.45l-.1,0Z"/><path class="cls-4" d="M33.51,29.18l-.08,0Z"/><path class="cls-4" d="M44.84,25l0-.08Z"/><path class="cls-4" d="M44.86,24.88l0-.08Z"/><path class="cls-4" d="M32.59,11.45l-.07,0Z"/><path class="cls-4" d="M61.82,30.71l0-.06Z"/><path class="cls-4" d="M44.18,41.58l0,0Z"/><path class="cls-4" d="M44.21,41.53v0Z"/><path class="cls-4" d="M44.28,41.36l0,0Z"/><path class="cls-19" d="M33.6,28.15l0,0Z"/><path class="cls-19" d="M33.53,28.2l0,0Z"/><path class="cls-4" d="M61.79,30.59v0Z"/><path class="cls-4" d="M33.27,29.32l-.05,0Z"/><path class="cls-18" d="M60.94,29.32l0,0Z"/><path class="cls-4" d="M33.31,29.29l0,0Z"/><path class="cls-4" d="M33.39,29.25l0,0Z"/><path class="cls-4" d="M33.43,29.22l0,0Z"/><path class="cls-18" d="M60.8,29.22l0,0Z"/><path class="cls-4" d="M33.65,29.1l0,0Z"/><path class="cls-18" d="M60.76,29.2l0,0Z"/><path class="cls-4" d="M33.6,29.13l0,0Z"/><path class="cls-4" d="M33.56,29.15l-.05,0Z"/><path class="cls-4" d="M31.18,12h0Z"/><path class="cls-4" d="M31.25,12l0,0Z"/><path class="cls-4" d="M31.28,11.93l0,0Z"/><path class="cls-4" d="M33.34,29.27l0,0Z"/><path class="cls-18" d="M60.91,29.29l0,0Z"/><path class="cls-4" d="M30.94,12.2l0,0Z"/><path class="cls-18" d="M61,29.34h0Z"/><path class="cls-4" d="M33.22,29.34l0,0Z"/><path class="cls-18" d="M61,29.36h0Z"/><path class="cls-4" d="M33.17,29.37l0,0Z"/><path class="cls-4" d="M31.15,12l0,0Z"/><path class="cls-18" d="M61,29.39s0,0,0,0Z"/><path class="cls-18" d="M61.05,29.41h0Z"/><path class="cls-17" d="M44.73,13.91v0h0Z"/><path class="cls-17" d="M44.71,13.84v0h0Z"/><path class="cls-17" d="M44.69,13.76h0Z"/><path class="cls-17" d="M33.81,11.54Z"/><path class="cls-17" d="M33.9,11.56h0Z"/><path class="cls-4" d="M30.55,31.9l0,0Z"/><path class="cls-4" d="M30.52,31.94l0,0Z"/><path class="cls-4" d="M30.5,32l0,0Z"/><path class="cls-4" d="M30.48,32v0Z"/><path class="cls-4" d="M44.39,41v0Z"/><path class="cls-4" d="M44.3,41.29v0Z"/><path class="cls-17" d="M34.13,11.64h0Z"/><path class="cls-4" d="M44.26,41.41v0Z"/><path class="cls-4" d="M44.24,41.46v0Z"/><path class="cls-4" d="M44.16,41.61l0,0Z"/><path class="cls-4" d="M44.14,41.65v0Z"/><path class="cls-4" d="M31.08,12.08l0,0Z"/><path class="cls-4" d="M31.06,12.1l0,0Z"/><path class="cls-4" d="M30.89,12.27h0l0,0Z"/><path class="cls-4" d="M30.92,12.22l0,0Z"/><path class="cls-20" d="M38.16,33a.8.8,0,0,1,.77-.8c.29,0,.44.18.43.5a1,1,0,0,1-.77.86C38.36,33.6,38.17,33.35,38.16,33Z"/><path class="cls-20" d="M56.32,32.75h.06c1.09.07-.05,1.18-.48,1.38a.29.29,0,0,1-.14,0,.51.51,0,0,1-.44-.7A1.39,1.39,0,0,1,56.32,32.75Z"/><path class="cls-18" d="M54,29.59l.05,0Z"/><path class="cls-20" d="M42.38,14.66c-.62-.35-1,1.51-.52,1.56S42.65,14.82,42.38,14.66Z"/><polygon class="cls-17" points="41.85 11.48 41.85 11.48 41.86 11.48 41.86 11.49 41.85 11.48"/><path class="cls-15" d="M44.32,25.68h0c.13.08.06.22,0,.32a3,3,0,0,1-2,1.09A5.72,5.72,0,0,1,39.73,27a2.49,2.49,0,0,1-1.31-.92,4,4,0,0,1-.59-1.72,7.67,7.67,0,0,0-.35-1.84c-.07-.14-.19-.3-.35-.28s-.23.22-.26.38a16.44,16.44,0,0,0-.27,1.71c0,.12-.08.48-.11.35a10.43,10.43,0,0,1,0-1.31,6.41,6.41,0,0,0-.06-1.24c0-.1-.08-.18-.11-.28a1.25,1.25,0,0,1,.54-1.42,1.61,1.61,0,0,1,1.69.08,2.58,2.58,0,0,1,1,1.32c.21.53.36,1.09.56,1.62A2.47,2.47,0,0,0,41,24.51a4.87,4.87,0,0,0,1.35.67,6.72,6.72,0,0,0,1.65.45A.78.78,0,0,1,44.32,25.68Z"/><path class="cls-20" d="M56.28,18.65a.33.33,0,0,1,0,.22c-.09.14-.23.13-.4,0a1.58,1.58,0,0,1-.51-1.43c.08-.23.2-.24.36-.08A2.31,2.31,0,0,1,56.28,18.65Z"/><path class="cls-16" d="M62,27.89l0-.05"/><path class="cls-16" d="M60.44,27.26a.29.29,0,0,1,.11.29.78.78,0,0,1-.14.29.23.23,0,0,0-.07.17.2.2,0,0,0,.14.11.28.28,0,0,0,.18,0,.23.23,0,0,0,.12-.12.85.85,0,0,0,0-.17,2.62,2.62,0,0,0,0-.28.86.86,0,0,0-.05-.23.37.37,0,0,0-.17-.18C60.51,27.1,60.41,27.1,60.44,27.26Z"/><path class="cls-16" d="M61.08,27.12v.05a.07.07,0,0,0,0-.05h0Z"/><path class="cls-16" d="M61.47,27.6h0Z"/></g></g></svg>